<svg width="34" height="34" viewBox="0 0 34 34" fill="none" xmlns="http://www.w3.org/2000/svg">
<path d="M21.9794 29.021C28.6183 26.271 31.771 18.6598 29.021 12.021C26.2711 5.38217 18.6599 2.22965 12.0209 4.97966C5.38194 7.72966 2.22928 15.3408 4.97923 21.9797C7.72918 28.6185 15.3404 31.771 21.9794 29.021Z" fill="#B6BA65"/>
<path d="M16.9987 28.8075C23.5201 28.8075 28.8068 23.5209 28.8068 16.9995C28.8068 10.4781 23.5201 5.19141 16.9987 5.19141C10.4773 5.19141 5.19067 10.4781 5.19067 16.9995C5.19067 23.5209 10.4773 28.8075 16.9987 28.8075Z" fill="#B6BA65"/>
<path d="M16.9988 3.98828V30.0101C24.1843 30.0101 30.0098 24.1851 30.0098 16.9991C30.0096 9.8136 24.1843 3.98828 16.9988 3.98828Z" fill="#B6BA65"/>
<path d="M20.18 13.14C19.9267 12.8733 19.4933 12.5867 18.88 12.28C18.2667 11.9733 17.5467 11.7867 16.72 11.72V15.86C17.52 16.06 18.2333 16.2667 18.86 16.48C19.4867 16.6933 20.0133 16.9533 20.44 17.26C20.88 17.5667 21.2133 17.94 21.44 18.38C21.6667 18.82 21.78 19.3667 21.78 20.02C21.78 20.74 21.6467 21.3533 21.38 21.86C21.1267 22.3667 20.7733 22.7867 20.32 23.12C19.88 23.4533 19.36 23.7067 18.76 23.88C18.1733 24.04 17.5467 24.1267 16.88 24.14V26.24H15.84V24.1C14.88 24.0333 13.96 23.8467 13.08 23.54C12.2133 23.22 11.42 22.78 10.7 22.22L11.74 20.3C11.8867 20.46 12.1 20.6333 12.38 20.82C12.66 21.0067 12.98 21.1867 13.34 21.36C13.7133 21.5333 14.12 21.6867 14.56 21.82C15.0133 21.9533 15.4867 22.0467 15.98 22.1V17.96C15.1533 17.7467 14.44 17.5267 13.84 17.3C13.2533 17.06 12.7667 16.7933 12.38 16.5C11.9933 16.1933 11.7067 15.8467 11.52 15.46C11.3467 15.06 11.26 14.58 11.26 14.02C11.26 13.3667 11.3733 12.7867 11.6 12.28C11.84 11.76 12.16 11.32 12.56 10.96C12.9733 10.6 13.46 10.3133 14.02 10.1C14.58 9.88667 15.1867 9.76 15.84 9.72V7.7H16.88V9.72C17.76 9.77333 18.56 9.94667 19.28 10.24C20 10.5333 20.64 10.8867 21.2 11.3L20.18 13.14ZM19.36 20.28C19.36 19.7067 19.1267 19.2733 18.66 18.98C18.2067 18.6733 17.56 18.4 16.72 18.16V22.12C17.56 22.1067 18.2067 21.9467 18.66 21.64C19.1267 21.3333 19.36 20.88 19.36 20.28ZM13.58 13.68C13.58 14.24 13.7733 14.66 14.16 14.94C14.56 15.2067 15.1667 15.4467 15.98 15.66V11.72C15.1933 11.76 14.5933 11.9533 14.18 12.3C13.78 12.6333 13.58 13.0933 13.58 13.68Z" fill="white"/>
<path d="M16.9986 29.2626L16.906 29.2624L16.9095 28.8136L16.9986 28.8138C17.5652 28.8138 18.1348 28.7735 18.6915 28.6935L18.7553 29.1378C18.1771 29.2205 17.5862 29.2626 16.9986 29.2626ZM15.2669 29.1413C14.656 29.0547 14.0468 28.9208 13.4567 28.7435L13.5857 28.3138C14.1545 28.4849 14.7412 28.6141 15.3298 28.6972L15.2669 29.1413ZM20.3628 28.7953L20.24 28.3636C20.8113 28.201 21.3749 27.993 21.9153 27.7453L22.1024 28.1534C21.541 28.4104 20.9561 28.6265 20.3628 28.7953ZM11.9171 28.1633C11.3565 27.9079 10.8102 27.6069 10.2931 27.2688L10.5386 26.893C11.0369 27.219 11.5632 27.5089 12.103 27.7552L11.9171 28.1633ZM23.5462 27.37L23.3064 26.991C23.8074 26.6742 24.2895 26.3155 24.7393 25.9252L25.0334 26.2641C24.5665 26.6693 24.0663 27.0413 23.5462 27.37ZM8.98045 26.2784C8.51361 25.8744 8.07425 25.4324 7.67375 24.9638L8.0146 24.6722C8.40074 25.1234 8.82426 25.5499 9.27402 25.9388L8.98045 26.2784ZM26.2 25.1066L25.8636 24.8098C26.2569 24.364 26.6193 23.8846 26.9411 23.3848L27.318 23.6274C26.9841 24.1462 26.6081 24.644 26.2 25.1066ZM6.69131 23.6464C6.35666 23.1286 6.05888 22.5808 5.8064 22.0187L6.21532 21.835C6.45864 22.3766 6.74577 22.9041 7.0678 23.4029L6.69131 23.6464ZM28.1133 22.188L27.7069 21.9979C27.9591 21.4581 28.1715 20.8959 28.3383 20.3264L28.769 20.4526C28.5955 21.0439 28.375 21.6276 28.1133 22.188ZM5.23536 20.4774C5.06085 19.8863 4.93016 19.2763 4.84748 18.665L5.29229 18.6046C5.37199 19.1939 5.49774 19.7811 5.66581 20.3504L5.23536 20.4774ZM29.1235 18.8476L28.6797 18.7805C28.7681 18.1954 28.8131 17.5961 28.8131 16.9998L28.8129 16.9501H29.2616L29.2619 16.9966C29.2616 17.6184 29.2151 18.2402 29.1235 18.8476ZM4.73535 17.0241V16.9993C4.73535 16.3892 4.78065 15.7761 4.87001 15.1765L5.31382 15.2429C5.22768 15.8206 5.18412 16.4117 5.18412 16.9996L4.73535 17.0241ZM28.702 15.3706C28.621 14.7817 28.494 14.1949 28.3247 13.6258L28.7544 13.4976C28.9304 14.0884 29.0621 14.6981 29.146 15.3095L28.702 15.3706ZM5.65195 13.6961L5.22125 13.5708C5.39328 12.9783 5.61284 12.3941 5.87348 11.8339L6.28017 12.0235C6.02893 12.5629 5.81779 13.1255 5.65195 13.6961ZM27.7713 12.1421C27.5277 11.6018 27.2398 11.0748 26.9158 10.5757L27.2921 10.3317C27.6284 10.8498 27.9272 11.397 28.1804 11.9574L27.7713 12.1421ZM7.04305 10.6352L6.66557 10.3928C6.99825 9.87376 7.37325 9.37549 7.78068 8.91187L8.11757 9.20767C7.72524 9.6547 7.36385 10.1349 7.04305 10.6352ZM25.967 9.30866C25.5797 8.85742 25.1549 8.43191 24.7046 8.04453L24.9977 7.70468C25.4646 8.10691 25.9052 8.548 26.3074 9.01632L25.967 9.30866ZM9.23961 8.09008L8.94481 7.75171C9.41065 7.34576 9.91016 6.97299 10.4295 6.64278L10.6703 7.02125C10.1696 7.33957 9.68813 7.69899 9.23961 8.09008ZM23.4378 7.09304C22.9395 6.76828 22.4125 6.47917 21.8717 6.23387L22.0568 5.82545C22.6185 6.07991 23.1655 6.37991 23.6828 6.71679L23.4378 7.09304ZM12.0597 6.26407L11.8721 5.85663C12.4327 5.59846 13.0171 5.38114 13.61 5.21109L13.7337 5.64228C13.1629 5.80589 12.5998 6.0153 12.0597 6.26407ZM20.3878 5.67817C19.8184 5.50812 19.2316 5.38064 18.6432 5.29871L18.7051 4.8544C19.3157 4.9393 19.9251 5.07197 20.5162 5.24846L20.3878 5.67817ZM15.2818 5.30886L15.2169 4.86504C15.8026 4.77964 16.4018 4.73633 16.9984 4.73633L17.0669 4.73657L17.062 5.18534L16.9981 5.18509C16.4234 5.18509 15.8459 5.22668 15.2818 5.30886Z" fill="white"/>
</svg>
