<svg width="49" height="48" viewBox="0 0 49 48" fill="none" xmlns="http://www.w3.org/2000/svg">
<path d="M44.111 20.083H42.5V20H24.5V28H35.803C34.154 32.657 29.723 36 24.5 36C17.873 36 12.5 30.627 12.5 24C12.5 17.373 17.873 12 24.5 12C27.559 12 30.342 13.154 32.461 15.039L38.118 9.382C34.546 6.053 29.768 4 24.5 4C13.455 4 4.5 12.955 4.5 24C4.5 35.045 13.455 44 24.5 44C35.545 44 44.5 35.045 44.5 24C44.5 22.659 44.362 21.35 44.111 20.083Z" fill="#FFC107"/>
<path d="M6.80591 14.691L13.3769 19.51C15.1549 15.108 19.4609 12 24.4999 12C27.5589 12 30.3419 13.154 32.4609 15.039L38.1179 9.382C34.5459 6.053 29.7679 4 24.4999 4C16.8179 4 10.1559 8.337 6.80591 14.691Z" fill="#FF3D00"/>
<path d="M24.5001 44C29.6661 44 34.3601 42.023 37.9091 38.808L31.7191 33.57C29.6436 35.1484 27.1075 36.0021 24.5001 36C19.2981 36 14.8811 32.683 13.2171 28.054L6.69507 33.079C10.0051 39.556 16.7271 44 24.5001 44Z" fill="#4CAF50"/>
<path d="M44.111 20.083H42.5V20H24.5V28H35.803C35.0142 30.2164 33.5934 32.1532 31.716 33.571L31.719 33.569L37.909 38.807C37.471 39.205 44.5 34 44.5 24C44.5 22.659 44.362 21.35 44.111 20.083Z" fill="#1976D2"/>
</svg>
