<svg width="50" height="50" viewBox="0 0 50 50" fill="none" xmlns="http://www.w3.org/2000/svg">
<path d="M32.3223 42.6767C42.0854 38.6326 46.7217 27.4398 42.6777 17.6769C38.6336 7.91398 27.4408 3.27796 17.6777 7.32205C7.91456 11.3661 3.27832 22.5589 7.32234 32.3219C11.3664 42.0848 22.5592 46.7208 32.3223 42.6767Z" fill="#F9BE2B"/>
<path d="M24.9982 42.3631C34.5884 42.3631 42.3628 34.5887 42.3628 24.9984C42.3628 15.4082 34.5884 7.63379 24.9982 7.63379C15.4079 7.63379 7.63351 15.4082 7.63351 24.9984C7.63351 34.5887 15.4079 42.3631 24.9982 42.3631Z" fill="#F9BE2B"/>
<path opacity="0.5" d="M24.998 5.86523V44.1323C35.5648 44.1323 44.1318 35.5661 44.1318 24.9986C44.1314 14.4318 35.5648 5.86523 24.998 5.86523Z" fill="#F9BE2B"/>
<path d="M24.9982 43.0326L24.862 43.0322L24.8671 42.3723L24.9982 42.3727C25.8314 42.3727 26.669 42.3133 27.4876 42.1958L27.5815 42.8491C26.7312 42.9707 25.8623 43.0326 24.9982 43.0326ZM22.4516 42.8542C21.5532 42.7268 20.6574 42.5299 19.7896 42.2693L19.9792 41.6374C20.8157 41.8889 21.6784 42.0789 22.544 42.2012L22.4516 42.8542ZM29.9454 42.3454L29.7649 41.7105C30.605 41.4714 31.4338 41.1656 32.2285 40.8012L32.5037 41.4015C31.6781 41.7793 30.8179 42.0971 29.9454 42.3454ZM17.5254 41.416C16.701 41.0404 15.8976 40.5978 15.1372 40.1005L15.4983 39.548C16.231 40.0274 17.0049 40.4536 17.7988 40.8158L17.5254 41.416ZM34.6269 40.2494L34.2742 39.6921C35.011 39.2262 35.72 38.6987 36.3814 38.1247L36.8139 38.623C36.1274 39.2189 35.3917 39.766 34.6269 40.2494ZM13.2069 38.6441C12.5203 38.0501 11.8742 37.3999 11.2853 36.7109L11.7865 36.2821C12.3543 36.9457 12.9772 37.5729 13.6386 38.1447L13.2069 38.6441ZM38.5295 36.9209L38.0348 36.4845C38.6132 35.8289 39.1461 35.1238 39.6193 34.3889L40.1737 34.7456C39.6826 35.5086 39.1297 36.2406 38.5295 36.9209ZM9.84051 34.7736C9.34837 34.0121 8.91046 33.2066 8.53918 32.3799L9.14052 32.1098C9.49834 32.9063 9.92059 33.682 10.3942 34.4154L9.84051 34.7736ZM41.3432 32.6289L40.7455 32.3493C41.1165 31.5554 41.4288 30.7288 41.6741 29.8912L42.3075 30.0768C42.0523 30.9464 41.728 31.8048 41.3432 32.6289ZM7.69941 30.1132C7.44278 29.244 7.25059 28.3471 7.12901 27.448L7.78313 27.3591C7.90034 28.2258 8.08526 29.0893 8.33242 29.9265L7.69941 30.1132ZM42.8288 27.7166L42.1761 27.6179C42.306 26.7574 42.3723 25.8762 42.3723 24.9993L42.3719 24.9261H43.0319L43.0322 24.9945C43.0319 25.9089 42.9634 26.8233 42.8288 27.7166ZM6.96411 25.0349V24.9985C6.96411 24.1013 7.03072 23.1996 7.16213 22.318L7.8148 22.4155C7.68812 23.2651 7.62406 24.1344 7.62406 24.9989L6.96411 25.0349ZM42.2089 22.6034C42.0898 21.7374 41.9031 20.8743 41.6541 20.0375L42.286 19.8489C42.5448 20.7178 42.7385 21.6144 42.8619 22.5135L42.2089 22.6034ZM8.31203 20.1409L7.67866 19.9567C7.93165 19.0852 8.25452 18.2262 8.63782 17.4024L9.23589 17.6812C8.86642 18.4744 8.55592 19.3018 8.31203 20.1409ZM40.8402 17.8556C40.482 17.061 40.0587 16.286 39.5822 15.5522L40.1355 15.1933C40.6302 15.9551 41.0695 16.7599 41.4419 17.5841L40.8402 17.8556ZM10.3578 15.6395L9.80265 15.2832C10.2919 14.5198 10.8433 13.7871 11.4425 13.1053L11.9379 13.5403C11.361 14.1977 10.8295 14.9039 10.3578 15.6395ZM38.1869 13.6888C37.6173 13.0252 36.9926 12.3995 36.3305 11.8298L36.7615 11.33C37.448 11.9215 38.0959 12.5702 38.6874 13.2589L38.1869 13.6888ZM13.588 11.8968L13.1544 11.3992C13.8395 10.8022 14.5741 10.254 15.3378 9.76843L15.6919 10.325C14.9556 10.7931 14.2476 11.3217 13.588 11.8968ZM34.4675 10.4306C33.7347 9.95299 32.9598 9.52782 32.1644 9.16709L32.4367 8.56648C33.2626 8.94068 34.0671 9.38186 34.8279 9.87727L34.4675 10.4306ZM17.7351 9.2115L17.4592 8.61234C18.2837 8.23268 19.1431 7.91309 20.0149 7.66301L20.1969 8.29711C19.3575 8.53772 18.5294 8.84567 17.7351 9.2115ZM29.9822 8.34989C29.145 8.09982 28.2819 7.91235 27.4166 7.79187L27.5077 7.13847C28.4057 7.26333 29.3018 7.45843 30.1711 7.71797L29.9822 8.34989ZM22.4734 7.80679L22.378 7.15412C23.2393 7.02854 24.1206 6.96484 24.9978 6.96484L25.0986 6.9652L25.0914 7.62515L24.9974 7.62479C24.1522 7.62479 23.303 7.68594 22.4734 7.80679Z" fill="white"/>
<rect x="23.3497" y="17.915" width="3.42289" height="16.4921" fill="white"/>
<rect x="16.8151" y="18.8486" width="3.42289" height="16.4921" transform="rotate(-90 16.8151 18.8486)" fill="white"/>
</svg>
